<svg xmlns="http://www.w3.org/2000/svg" xmlns:xlink="http://www.w3.org/1999/xlink" viewBox="0 0 1062 230"><defs><style>.cls-1{fill:none;}.cls-2{fill:#09e;}.cls-3{clip-path:url(#clip-path);}.cls-4{fill:#e6f0fa;}</style><clipPath id="clip-path"><rect class="cls-1" width="1062" height="230"/></clipPath></defs><title>mp_logo_onblack</title><g id="Layer_2" data-name="Layer 2"><g id="Layer_1-2" data-name="Layer 1"><g id="mp_logo_onblack"><polygon class="cls-2" points="0 0 0 230 70 230 70 210 20 210 20 20 210 20 210 210 160 210 160 230 230 230 230 0 0 0"/><g class="cls-3"><path class="cls-4" d="M398.28,88c6,6,9.09,14.22,9.09,24.78v47.94H388.16V116.29c0-12.9-6.6-19.79-16.57-19.79-10.7,0-18.32,8.06-18.32,20.38v43.83H334.21V116.44c0-12.47-6.75-19.94-16.86-19.94-10.71,0-18.48,8.06-18.48,20.52v43.69H279.82V81.1h18.76V92.54c4.55-8.36,13.78-13.64,24.19-13.64s19.5,5,23.75,14.22c5.72-8.94,16.42-14.22,28.59-14.22,9.53,0,17.16,3.08,23.17,9.09"/><path class="cls-4" d="M480.82,103.68a23.71,23.71,0,0,0-33.72,0,26.22,26.22,0,0,0,0,34.45,23.71,23.71,0,0,0,33.72,0,24.26,24.26,0,0,0,6.6-17.3,24.15,24.15,0,0,0-6.6-17.15M487,81.1h18.18v79.61H487v-9.82a33.29,33.29,0,0,1-26,11.73c-11.44,0-20.82-4-28.3-12s-11.14-18.17-11.14-30,3.67-21.85,11.14-29.62,17-11.72,28.3-11.72c10.12,0,18.77,4,26,12Z"/><path class="cls-4" d="M579.49,137.4q6.6-6.81,6.6-17.15c0-6.89-2.2-12.47-6.6-16.86a22.06,22.06,0,0,0-16.56-6.75c-6.75,0-12.32,2.2-16.72,6.75-4.39,4.39-6.59,10-6.59,16.86s2.2,12.61,6.59,17.15,10,6.74,16.72,6.74a22.05,22.05,0,0,0,16.56-6.74m6.6-56.3H604v71.69c0,12.76-4.11,22.88-12.17,30.35s-18.62,11.29-31.67,11.29A60.8,60.8,0,0,1,523.93,183l7.77-14.52c8.94,6.31,18.33,9.38,28,9.38,16.28,0,25.81-9.52,25.81-23.16V150c-6.46,7.18-15,10.85-25.37,10.85-11.58,0-21.11-3.81-28.59-11.58s-11.14-17.45-11.14-29.18S524.22,98.4,532,90.78,549.44,79.2,560.87,79.2a32,32,0,0,1,25.22,11.43Z"/><path class="cls-4" d="M642.83,160.71h-19.2V81.1h19.2ZM621.14,59.55a12,12,0,0,1,12.31-12,11.71,11.71,0,0,1,12,12,11.63,11.63,0,0,1-12,12c-7,0-12.31-5-12.31-12"/><path class="cls-4" d="M669.37,150.74C661.6,143,657.64,133,657.64,120.83s4-22.13,11.88-29.91S687.7,79.2,700.3,79.2c16.28,0,30.5,7.91,37,21.84l-15.54,8.36c-4.69-7.77-12.32-12.61-21.11-12.61a23.36,23.36,0,0,0-17.16,6.89c-4.54,4.55-6.74,10.26-6.74,17.15s2.2,12.61,6.6,17.16A22.35,22.35,0,0,0,700,144.88c8.8,0,17.45-5,21.41-12.46L737,141.51c-6.89,12.75-21,21-37.24,21-12.32,0-22.43-4-30.35-11.73"/><path class="cls-4" d="M775.37,138.28c4.25,4.55,9.82,6.89,16.71,6.89s12.47-2.34,16.72-6.89a24.8,24.8,0,0,0,6.45-17.3,24.17,24.17,0,0,0-6.45-17.15q-6.37-7-16.72-7t-16.71,7a26.22,26.22,0,0,0,0,34.45m47.94-46.91c7.48,8.06,11.14,17.88,11.14,29.46,0,11.73-3.81,21.7-11.28,29.77s-16.86,12-28.15,12c-10.12,0-18.77-4-25.66-11.88v42.67H750.15V81.1h19.06V91.66c6.89-8.36,15.54-12.46,25.95-12.46a36.82,36.82,0,0,1,28.15,12.17"/></g><rect class="cls-4" x="849.56" y="49.29" width="19.06" height="111.43"/><g class="cls-3"><path class="cls-4" d="M943.09,103.68a23.71,23.71,0,0,0-33.72,0,26.22,26.22,0,0,0,0,34.45,23.71,23.71,0,0,0,33.72,0,24.26,24.26,0,0,0,6.6-17.3,24.15,24.15,0,0,0-6.6-17.15m6.16-22.58h18.18v79.61H949.25v-9.82a33.29,33.29,0,0,1-26,11.73c-11.43,0-20.82-4-28.29-12s-11.15-18.17-11.15-30S887.53,98.69,895,90.92,912,79.2,923.3,79.2c10.12,0,18.77,4,26,12Z"/><path class="cls-4" d="M986.94,160.71V81.1h18.76V92.24c4.25-8.06,13.49-13.19,25.07-13.19a31.12,31.12,0,0,1,22.14,8.65c6,5.72,9.09,13.78,9.09,24.48v48.53h-19.21V117.46c0-13.34-6.89-21-17.44-21-11.29,0-19.35,8.79-19.35,21.25v43Z"/><path class="cls-4" d="M169.69,88c6,6,9.09,14.22,9.09,24.78v47.94H159.57V116.29c0-12.9-6.6-19.79-16.57-19.79-10.7,0-18.32,8.06-18.32,20.38v43.83H105.62V116.44c0-12.47-6.75-19.94-16.86-19.94-10.71,0-18.48,8.06-18.48,20.52v43.69H51.22V81.1H70V92.54C74.54,84.18,83.77,78.9,94.18,78.9s19.5,5,23.75,14.22c5.72-8.94,16.42-14.22,28.59-14.22,9.53,0,17.16,3.08,23.17,9.09"/></g></g></g></g></svg>